<?xml version="1.0" encoding="UTF-8" standalone="no"?>
<!-- Generator: Adobe Illustrator 14.0.0, SVG Export Plug-In . SVG Version: 6.00 Build 43363)  -->

<svg
   version="1.1"
   id="Layer_1"
   x="0px"
   y="0px"
   width="300px"
   height="300px"
   viewBox="0 0 300 300"
   enable-background="new 0 0 300 300"
   xml:space="preserve"
   inkscape:version="1.2 (dc2aeda, 2022-05-15)"
   sodipodi:docname="20201110130537!Orienteering_pictogram.svg"
   xmlns:inkscape="http://www.inkscape.org/namespaces/inkscape"
   xmlns:sodipodi="http://sodipodi.sourceforge.net/DTD/sodipodi-0.dtd"
   xmlns="http://www.w3.org/2000/svg"
   xmlns:svg="http://www.w3.org/2000/svg"
   xmlns:rdf="http://www.w3.org/1999/02/22-rdf-syntax-ns#"
   xmlns:cc="http://creativecommons.org/ns#"
   xmlns:dc="http://purl.org/dc/elements/1.1/"><metadata
   id="metadata15"><rdf:RDF><cc:Work
       rdf:about=""><dc:format>image/svg+xml</dc:format><dc:type
         rdf:resource="http://purl.org/dc/dcmitype/StillImage" /></cc:Work></rdf:RDF></metadata><defs
   id="defs13" /><sodipodi:namedview
   pagecolor="#ffffff"
   bordercolor="#666666"
   borderopacity="1"
   objecttolerance="10"
   gridtolerance="10"
   guidetolerance="10"
   inkscape:pageopacity="0"
   inkscape:pageshadow="2"
   inkscape:window-width="1920"
   inkscape:window-height="1080"
   id="namedview11"
   showgrid="false"
   inkscape:zoom="1.5733334"
   inkscape:cx="260.59321"
   inkscape:cy="214.8305"
   inkscape:window-x="0"
   inkscape:window-y="0"
   inkscape:window-maximized="0"
   inkscape:current-layer="Layer_1"
   inkscape:showpageshadow="2"
   inkscape:pagecheckerboard="0"
   inkscape:deskcolor="#d1d1d1" />
<path
   d="m 108.422,50.727 c 16.52877,-6.85918 34.22901,4.27056 47.89824,13.936548 C 166.83269,72.097271 171.11039,97.022102 152.933,92.584 138.86374,89.148918 132.17768,68.603878 116.86742,70.143479 101.3894,71.69995 89.811995,108.73947 86.913707,122.0454 82.706809,95.605624 82.300476,61.567023 108.422,50.727 Z"
   id="path3"
   sodipodi:nodetypes="sssscs" />

<path
   d="m 277.366,97.539 c 3.76455,12.27634 -3.51147,24.82181 -9.66451,35.04466 -7.87742,13.08778 -21.92133,24.99765 -37.81249,25.09221 -13.80988,0.0822 -22.60384,-13.75872 -29.6968,-24.38616 -7.22641,-10.82737 -1.66988,-38.682463 13.42989,-26.53376 9.65065,7.76455 6.57014,26.14485 19.77394,30.19217 9.84813,3.01871 19.06502,-6.41587 25.36397,-13.27912 9.28779,-10.11985 13.23419,-18.07475 18.606,-26.13 z"
   id="path7"
   sodipodi:nodetypes="cssssssc" />
<path
   d="m 98.081,135.092 c 11.20563,-7.1545 24.38676,2.13718 34.18056,7.90553 14.95596,11.08383 29.72779,23.29279 39.99107,39.02334 7.19008,12.17318 -6.14801,23.5051 -15.65983,29.22121 -14.0912,7.36581 -29.99305,10.27463 -45.25767,14.21504 -7.25266,0.55441 -23.166754,3.83757 -24.944966,0.53471 18.632466,-8.40204 37.173386,-17.30531 54.761586,-27.72833 15.22428,-7.77399 -4.70176,-21.77101 -14.74962,-11.76175 -22.45166,18.81036 -49.502159,30.89982 -73.917087,46.85557 C 41.774806,239.43407 31.648395,247.13843 19.983,251.171 40.941473,231.23335 60.226712,209.61896 81.234535,189.71618 89.938441,181.10854 98.426808,172.28001 106.599,163.165 97.584965,157.03099 89.579293,145.15423 98.081,135.092 Z"
   id="path9"
   sodipodi:nodetypes="ccccccccccccc" />
<g
   id="g607"><rect
     id="rect2994"
     style="fill:#ffffff;fill-opacity:1;stroke:none;stroke-width:0.7698"
     y="187.94658"
     x="202.87152"
     height="72.14048"
     width="72.14048" /><path
     inkscape:connector-curvature="0"
     d="m 275.012,187.94658 -72.14048,72.14047 H 275.012 Z"
     style="fill:#f76d22;fill-opacity:1;stroke:none;stroke-width:0.7698"
     id="path2996"
     sodipodi:nodetypes="cccc" /><rect
     style="color:#000000;fill:none;stroke:#000000;stroke-width:3.912;stroke-linecap:butt;stroke-linejoin:miter;stroke-miterlimit:4;stroke-opacity:1;stroke-dasharray:none;stroke-dashoffset:0;marker:none;visibility:visible;display:inline;overflow:visible;enable-background:accumulate"
     id="rect3797"
     width="71.909157"
     height="71.909157"
     x="203.14339"
     y="187.64194" /></g><circle
   style="fill:#000000;stroke-width:2.95414;stroke-linecap:round;stroke-linejoin:round"
   id="path568"
   cx="203.44749"
   cy="78.335739"
   r="22" /></svg>
